<?xml version="1.0" encoding="utf-8"?>
<!-- Generator: Adobe Illustrator 21.0.0, SVG Export Plug-In . SVG Version: 6.00 Build 0)  -->
<svg version="1.1" id="图层_1" xmlns="http://www.w3.org/2000/svg" xmlns:xlink="http://www.w3.org/1999/xlink" x="0px" y="0px"
	 viewBox="0 0 200 200" style="enable-background:new 0 0 200 200;" xml:space="preserve">
<style type="text/css">
	.st0{fill:#2196F3;}
</style>
<g>
	<g>
		<g>
			<g>
				<path class="st0" d="M99.1,25.9c-29.2,0-52.9,23.7-52.9,52.9c0,29.2,23.7,52.9,52.9,52.9c29.2,0,52.9-23.7,52.9-52.9
					C152,49.6,128.3,25.9,99.1,25.9z M135,110.6H62.7V101h8V71.9h9.9V101h14.1V60.6h9.9v15.1h30.3v9.7h-30.3V101H135V110.6z
					 M135.5,71.4l-1.3,0c-4.1-0.1-7.2-0.6-9.6-1.7c-2.4-1.1-4.3-2.9-5.6-5.4l-4.4-8.6c-0.7-1.5-1.3-2-1.7-2.1
					c-0.2-0.1-1.1-0.3-3.6-0.3H87.2c-1.7,0-2.2,0.2-2.3,0.2c-0.8,0.5-1.4,1-1.6,1.5l-3.7,8c-1.6,3.5-4.2,5.9-7.6,7.1
					c-2,0.7-4.6,1.1-8.2,1.2l-1.3,0v-9.6l1.2,0c2.7,0,3.8-0.2,4.3-0.3c1.5-0.4,2.7-1.5,3.5-3.3l3.3-7.1c2.3-5,6.3-7.5,11.8-7.5h22.6
					c4.5,0,7.5,0.6,9.3,1.8c1.8,1.2,3.2,3,4.4,5.5l3.3,7.2c0.7,1.5,1.7,2.5,3,3.1c0.6,0.3,2,0.6,5.1,0.6h1.3V71.4z"/>
			</g>
		</g>
		<g>
			<g>
				<path class="st0" d="M158.6,121.1L158.6,121.1c8.8-12.3,13.6-27.1,13.6-42.3c0-40.3-32.8-73.1-73.1-73.1S26,38.5,26,78.8
					c0,15.2,4.8,30,13.6,42.4L7.8,169.8l39.4-3l13.7,28l23.5-44.4c4.8,1,9.8,1.5,14.7,1.5c5.1,0,10-0.5,14.8-1.5l23.5,44.5l13.7-28
					l39.4,3L158.6,121.1z M99.1,138.1c-32.7,0-59.3-26.6-59.3-59.3c0-32.7,26.6-59.3,59.3-59.3c32.7,0,59.3,26.6,59.3,59.3
					C158.4,111.5,131.8,138.1,99.1,138.1z"/>
			</g>
		</g>
	</g>
</g>
</svg>
